<svg xmlns="http://www.w3.org/2000/svg" width="474.552" height="512.016" viewBox="0 0 646 697">
  <defs>
<!--    <style>-->
<!--      .cls-1 {-->
<!--        fill: #10b2f6;-->
<!--        fill-rule: evenodd;-->
<!--      }-->
<!--    </style>-->
  </defs>
  <path id="Color_Fill_1" class="cls-1" d="M170,166a9.786,9.786,0,0,0-2-4h-1c-1.224-2.732.662-6.195,1-8h2q0.5-1,1-2h29c2.366,4.073,3.073,3.755,3,11-1.242.718-2.689,2.83-3,3C194.467,169.021,176.135,166.613,170,166Zm135-14v2c2.762,0.723,2.237.279,3,3h1v5c-1.707,1.082-2.124,2.129-3,4-17.168,1.593-38.21,1-57,1H224v-1h-3v-2h-2a21.057,21.057,0,0,1,0-10c1.135-.844.145,0.127,1-1C246.28,150.626,277.041,152.012,305,152Zm28,0h83c2.869,4.621,6.878,8.97,0,13-3.554,3.524-15.233,2-22,2-19.075,0-45.054,2.13-62-1-1.895-3.256-3.731-3.633-4-9,2.43-1.522.637-1.309,2-3C330.737,153.085,332.052,153.21,333,152ZM168,188h2q0.5-1,1-2h13c12.775,0,23.533-.715,33,1q0.5,1.5,1,3h1v6c-1.3,1.048-1.489,2.043-3,3-2.231,2.288-6.433,1.991-11,2-8.141.017-31.122,1.7-35-2-2.564-2.034-3.054-4.178-3-9C168.139,188.861,167.4,190,168,188Zm70-2h89c1.584,2.731,2.742,2.446,3,7h1c0.353,1.65-2.872,5.294-4,6-3.542,3.528-15.242,2-22,2H261c-8.649,0-18.12.392-24-2-1.39-2.551-2.581-3.1-3-7,1.361-1.166,1.528-1.825,2-4h2v-2Zm112,0c15.168-.085,33.546-1.451,47,1a17.815,17.815,0,0,1,2,9c-1.707,1.082-2.124,2.129-3,4-13.115.727-35.637,3.6-47-1-1.27-2.73-2.532-3.292-3-7C347.548,190.674,349.03,187.8,350,186Zm67,0h42c1.648,3.5,2.946,4.33,3,10-1.3,1.048-1.489,2.043-3,3-2.51,2.536-7.943,2-13,2H419v-1l-4-1c-1.27-2.73-2.532-3.292-3-7h1v-3h1v-1A7.49,7.49,0,0,0,417,186Zm17,47c-12.281,2.607-29.716,2-45,2-6.782,0-14.828.459-17-4v-7c1.3-1.048,1.489-2.043,3-3v-1h3v-1h1v1h53c1.965,3.534,3.851,4.2,4,10C434.281,231.127,434.645,230.633,434,233ZM259,222a21.057,21.057,0,0,1,0,10c-2.612,1.382-1.693,1.769-6,2-2.858,2.556-14.106,1-19,1H188c-6.059,0-14.887,1.1-18-2-2.564-2.034-3.054-4.178-3-9l4-3v-1h85C257.127,221.719,256.633,221.355,259,222Zm217,11-4,1v1c-5.527,1.915-17.943-.746-21-2-2.055-4.437-2.038-5.63-1-11h2l1-2h21c1.895,3.256,3.731,3.633,4,9C476.639,230.166,476.472,230.825,476,233Zm1,21v2c4.219,1.125,3.24,3.988,3,9-2.937,1.708-2.863,2.891-8,3-1.88,1.735-7.507,1-11,1-10.285,0-27.842,2.437-32-4-1.047-1-2.464-5.829-1-8h1c1.139-1.139,0-.4,2-1v-2C442.988,253.689,464.97,253.552,477,254Zm-306,0h28c3.993,0,9.474-.662,12,1v1c2.69,2.207,3.018,2.836,3,8-1.707,1.082-2.124,2.129-3,4-13.035,1.337-32.821,2.575-43-2q-0.5-4-1-8h1Zm63,0h24c2.366,4.073,3.073,3.755,3,11l-3,2c-4,4.078-18.108,1.391-24,1-1.463-2.394-5.036-5.151-3-8C231.452,255.819,232.432,256.711,234,254Zm175,0v2l3,1v4h1c0.041,0.4-.9,2.228-1,4l-3,2c-1.418,1.5-8.2,3.127-12,2v-1l-2,1v-1l-4-1c-1.088-4.883-1.978-4.51-1-10a21.214,21.214,0,0,0,3-3h16ZM199,289v2l2,1c1.16,2.843-.644,6.107-1,8l-3,1v1h-2v1c-4.942,1.825-20.573-.772-25-1-0.884-2.919-4.521-4.367-3-9h1v-3h1v-1h2v-1h20v-1h1v1C194.883,288.605,196.711,288.555,199,289Zm184,2h2l1-3c11.631-.349,34.818-0.964,45,1,1.094,2.078,1.611,1.771,2,5h1v1h-1v4l-3,1-1,2h-2c-2.646,1.257-7.849,1-12,1-10.127,0-22.872,1.007-30-2C383.665,298.014,382.992,295.95,383,291Zm84,9v2a90.9,90.9,0,0,1-18,0v-2h-2a21.057,21.057,0,0,1,0-10h2v-2c4.577-.244,10.969.008,18,0,1.584,2.749,2.47,1.8,3,6h1v1h-1v4h-1C467.861,300.139,469,299.4,467,300ZM218,289c11.356-2.029,26.986-1.013,40-1,2.366,4.073,3.073,3.755,3,11-1.949,1.123-3.731,3.257-6,4H245c-8.539,0-17.915-.3-25-1-2.181-3.652-3.971-3.491-4-10C217.719,290.873,217.355,291.367,218,289Zm-49,34,5-1v-1h25c19.875,0,41.716.117,60,1,0.9,1.776,2.482,4.721,4,6-0.536,3.032-1.791,5.594-4,7-3.1,3.1-11.95,2-18,2H192c-4.915,0-16.113,1.55-19-1-4.661-1.05-6.151-3.962-6-10C168.719,324.873,168.355,325.367,169,323Zm110,12c-0.605-2.3-3.638-5.094-2-9l2-1v-2c9.125-1.815,16.613-3,24,0a12.743,12.743,0,0,0,2,2v2h1v4h-1v2h-1l-1,2h-2v1h-2v1A90.933,90.933,0,0,1,279,335Zm38-11h2v-2c5.72-.73,15-1.49,19,0h3c0.73,0.424,4.7,6.358,4,8h-1c-0.8,4.6-2.361,6.073-8,6-2.647,2.576-15.231.857-17-1-2.564-2.034-3.054-4.178-3-9C317.139,324.861,316.4,326,317,324Zm45-3h54c8.246,0,16.84-1.17,20,4h1l1,5h-1c-0.5,2.706-1.069,3.761-3,5-3.209,3.212-12.772,2-19,2-17.388,0-46.281,2.317-57-2a17.815,17.815,0,0,1-2-9h1v-2l2-1v-1h3v-1ZM207,369l-6,1v1H174v-1l-5-1c-0.814-3.319-1.928-4.1-2-9l6-5c9.6-.262,23.625,1.21,30,0v1c3.421,1.372,3.874.1,5,4h1v6C207.281,367.127,207.645,366.633,207,369Zm83,1c-12.972,1.317-29.443,1-44,1-7.135,0-15.941-.158-18-2-2.356-1.867-2.974-3.626-3-8,1.139-1.139.4,0,1-2a21.9,21.9,0,0,0,5-4h56v1c1.763,0.641,2.606.435,4,1a12.511,12.511,0,0,0,2,2v2h1c0.817,2.766-1.491,5.609-2,8h-1v-1C290.14,366.111,290,370,290,370Zm61-1-6,1v1l-2-1v1H327v-1l-5,1v-1c-1.931-.638-2.509-0.386-4-1a17.815,17.815,0,0,1-2-9c1.3-1.048,1.489-2.043,3-3v-1h3v-1h23a73.012,73.012,0,0,1,7,3q0.5,3,1,6h-1v1h1v1h-1Zm20,0c-1.353-5.211-2.194-3.563-1-10,2.731-1.584,2.446-2.742,7-3,2.287-2.032,15.428-1,20-1h40c8.393,0,17.336-.31,23,2,2.74,5.474,3.736,12.778-5,13-2.379,2.1-17.187,1-22,1H377v-1ZM168,402a39.688,39.688,0,0,1-1-8l4-3v-1h3c5.564-2.091,12.431-1.305,15,3h1q0.5,3,1,6c-1.858,1.2-2.142,2.8-4,4v1h-3v1h-1v-1H171l-1-2h-2Zm90-12v2c4.219,1.125,3.24,3.988,3,9a19.688,19.688,0,0,0-3,3H204l-1-2c-1.8-1.741-2-4.394-2-8,1.139-1.139.4,0,1-2h2v-2A325.211,325.211,0,0,1,258,390Zm174,0a9.786,9.786,0,0,0,2,4h1c1.224,2.732-.662,6.195-1,8l-3,1v1h-3v1c-0.408.1-4.846-.982-7-1H407v1l-4-1v1h-1v-1h-3l-1-2h-2a21.057,21.057,0,0,1,0-10h2v-2c6.75-.333,14.917-1.027,23-1h7v1h4Zm63,11h-2l-1,3c-13.845-.03-27.745.031-39,0a24.485,24.485,0,0,0-3-3v-3h-1c-0.591-2.443,2.932-7.494,4-8h4c2.192-2.056,10.023-1,14-1C485.177,389,495.465,385.35,495,401ZM174,423c14.982-.053,31.569.325,45,1,2.191,3.983,2.969,3.306,3,10l-4,3v1H171c-2.037-3.412-3.866-3.107-4-9h1c0.788-.92.819-4.259,2-5h4v-1Zm87,13v2H242a23.83,23.83,0,0,0-3-3v-3h-1c-0.559-3.186,2.305-5.751,4-7v-1h4c2.574-2.418,12.115-.6,15,0,1.584,2.731,2.742,2.446,3,7h1v1h-1v3h-1C261.861,436.139,263,435.4,261,436Zm148-13c10.063-.238,26.987-2.176,31,4h1v3h1v1h-1l1,2h-1c-2.233,4.973-3.121,2.824-6,6-8.017-1.435-19.41-1.012-29-1-3.342-5.543-4.919-4.914-2-12C405.749,425.263,407.837,424.378,409,423Zm54,0c11.9-.147,28.3-1.547,37,2,1.27,2.73,2.532,3.292,3,7h-1v2a5.99,5.99,0,0,1-3,3c-2.654,2.546-5.644,1.011-11,1H460c-2.366-4.073-3.073-3.755-3-11l3-2v-1h3v-1ZM169,470c-1.034-4.738-2.087-8.368,2-11,1.3-1.368,16.123-3.77,20-2l1,2,2-1v1c2.356,1.867,2.974,3.626,3,8h-1v2l-3,2v1H172C170.873,470.281,171.367,470.645,169,470Zm94,0h-2v2c-15.263-.02-33.825.362-46,0-2.255-3.865-3.866-3.375-4-10,1.719-1.127,1.355-.633,2-3l5-1v-1h30c7.6,0,12.035-.926,15,4h1l1,5h-1Zm123-11,4-1v-1h9c9.153-.01,19.695-0.568,26,2,1.861,3.983,3.43,7.116,0,11l-1,2H388c-1.716-2.965-3.5-3.43-4-8h1Zm107,2h2l1,5h-1c-0.724,4.2-2,5.879-7,6v1h-1v-1H446c-1.965-3.534-3.851-4.2-4-10,1.719-1.127,1.355-.633,2-3l5-1v-1h12c10.755,0,24.659,0,31,1ZM173,491h35v1c3.371,1.554,3.823-.078,5,4h1v6l-2,1-1,3H171c-2.181-3.652-3.971-3.491-4-10Zm58,14v-2l-2-1c-1.16-2.843.644-6.107,1-8l3-1v-1h2v-1h56v1l4,1c0.737,1.749,1.622,3.837,3,5l-2,6c-5.25,2.329-13.963,2-22,2C260.061,506,243.255,507.244,231,505Zm90,0c-0.814-3.319-1.928-4.1-2-9,1.707-1.082,2.124-2.129,3-4,7.616-.338,16.97-0.977,26-1,2.373,3.586,5.26,2.935,6,9h-1v3h-1v1C345.09,507.112,329.405,506.576,321,505Zm54-14c14.541-.084,32.16-1.341,45,1,1.716,2.965,3.5,3.43,4,8h-1v3h-1c-1.876,2.327-1.72,2.8-6,3v1h-1v-1H372c-1.463-2.394-5.036-5.151-3-8,0.589-2.883,1.19-3.472,3-5v-1h3v-1Zm102,3q0.5,3.5,1,7c-1.8,1.19-2.28,2.722-4,4v1H443c-1.463-2.394-5.036-5.151-3-8,0.618-3.469,1.648-5.168,5-6,1.663-1.523,5.836-1,9-1h17v1h3v1ZM247,539c-8.022,1.43-19.406,1-29,1H171c-2.255-3.865-3.866-3.375-4-10,1.975-1.129,2.338-1.417,3-4,16.181-1.6,36.2-1,54-1,4.931,0,16.092-1.546,19,1,5.509,1.14,6.264,3.157,6,10C247.281,537.127,247.645,536.633,247,539Zm27-14h55c10.121,0,19.423-1.892,20,8h1v1h-1c-1.861,8.621-10.289,6-20,6H271a21.9,21.9,0,0,0-4-5v-1h1l-1-3h1c0.718-2.8,1.178-2.526,3-4v-1h3v-1Zm142,1v2l3,1v4h1c0.041,0.4-.9,2.228-1,4a19.885,19.885,0,0,0-3,3H371c-1.139-1.139,0-.4-2-1a17.815,17.815,0,0,1-2-9c1.975-1.129,2.338-1.417,3-4A277.4,277.4,0,0,1,416,526Z"/>
</svg>
