<svg xmlns="http://www.w3.org/2000/svg" width="24.008" height="23.241" viewBox="0 0 188 182">
    <path
        d="M106 31v2c2.753.752 2.984 1.691 5 3v1c1.506.61 7.087-1.729 8-2h6v-1c3.423-.957 6.681.6 9 1a103 103 0 0 1 6 20l3 1v1h2v1h2v1h3v1l4 1v1h3v1c1.558 1.3 1.353.526 2 3 3.36 3.65-2.936 14.8-4 18v4h1v2l2 1v2c3.651 5.444 6.923 5.205 7 15-1.25 1-1.21 2.382-2 3h-2v1l-3 2-1 2h-2v1c-1.738 1.435-2.413 2.3-5 3 .076 7.735.153 16.784-1 23-1.913.786-5 2.383-7 3h-8v1h-7v1h-1v2l-2 1v2h-1v2l-2 1-1 4-2 1-1 3-7 1v-1h-3l-1-2-5-1c-3.352-1.563-2.575-3.3-8-4v1h-3l-1 2-5 1v1h-2l-1 2-7 1-6-5-1-4-2-1-1-4-2-1-1-3-19-2a21.92 21.92 0 0 0-4-5v-20c-4.056-.976-3.5-3.185-6-5h-2l-1-2h-1l-1-2-3-1v-2h-1v-6l10-14v-4h-1l-1-6h-1c-1.932-4.94-1.966-8.843-1-14 5.761-2.512 12-7.159 19-8l1-6h1v-5h1v-4h1v-3l3-2 1-2h7c1.119 1 11.635 2.8 14 3l2-3h2l3-4 7-6c10.349-.006 8.286 5.083 15 7Z"
        style="fill-rule:evenodd;fill:#0095fe" />
    <path
        d="M116 73h7c2.181 3.651 3.971 3.491 4 10l-38 39h-9l-15-16c-1.9-1.965-5.073-4-3-7 .56-3.137.974-4.19 4-5v-1h6l10 9v1h4c1.971-3.392 5.322-5.322 8-8l15-16Z"
        style="fill:#01365b;fill-rule:evenodd" />
</svg>