<?xml version="1.0" standalone="no"?>
<!DOCTYPE svg PUBLIC "-//W3C//DTD SVG 20010904//EN"
 "http://www.w3.org/TR/2001/REC-SVG-20010904/DTD/svg10.dtd">
<svg version="1.0" xmlns="http://www.w3.org/2000/svg"
 width="512.000000pt" height="512.000000pt" viewBox="0 0 512.000000 512.000000"
 preserveAspectRatio="xMidYMid meet">
<metadata>
Created by potrace 1.14, written by Peter Selinger 2001-2017
</metadata>
<g transform="translate(0.000000,512.000000) scale(0.100000,-0.100000)"
fill="#000000" stroke="none">
<path d="M0 2560 l0 -2560 2560 0 2560 0 0 2560 0 2560 -2560 0 -2560 0 0
-2560z m1605 1516 c20 -31 5 -73 -30 -86 -34 -13 -166 -13 -199 0 -39 14 -53
53 -32 85 16 24 19 25 131 25 109 0 115 -1 130 -24z m819 8 c20 -19 20 -54 2
-80 -14 -18 -31 -19 -326 -22 -266 -2 -316 -1 -335 12 -32 21 -40 52 -21 81
l16 25 325 0 c281 0 326 -2 339 -16z m868 -1 c24 -22 23 -55 -3 -79 -20 -18
-42 -19 -323 -22 -190 -2 -313 1 -330 7 -45 18 -52 77 -12 103 6 4 155 8 330
8 283 0 321 -2 338 -17z m-1572 -263 c27 -27 26 -65 -2 -84 -18 -13 -54 -16
-185 -16 -150 0 -165 2 -183 20 -20 20 -25 47 -12 66 19 28 53 33 205 34 144
0 159 -2 177 -20z m868 4 c14 -10 22 -26 22 -44 0 -58 -9 -60 -377 -60 -320 0
-334 1 -353 20 -26 26 -25 48 2 77 l21 23 332 0 c283 0 334 -2 353 -16z m542
-4 c24 -24 26 -57 3 -82 -14 -16 -34 -18 -185 -18 -155 0 -170 2 -188 20 -11
11 -20 29 -20 40 0 11 9 29 20 40 18 18 33 20 185 20 152 0 167 -2 185 -20z
m488 4 c26 -18 29 -60 5 -86 -14 -16 -34 -18 -171 -18 -172 0 -192 6 -192 61
0 51 27 59 190 59 116 0 150 -3 168 -16z m-1576 -271 c22 -19 23 -52 4 -79
-14 -18 -31 -19 -338 -22 -317 -3 -325 -2 -351 18 -32 25 -34 53 -7 80 19 19
33 20 347 20 290 0 328 -2 345 -17z m1378 -3 c27 -27 25 -55 -6 -79 -25 -20
-39 -21 -223 -21 -220 0 -244 6 -249 56 -6 61 5 64 244 64 201 0 215 -1 234
-20z m330 0 c26 -26 25 -46 -5 -75 -21 -22 -33 -25 -90 -25 -57 0 -69 3 -90
25 -30 29 -31 49 -5 75 16 16 33 20 95 20 62 0 79 -4 95 -20z m-2068 -267 c24
-22 23 -55 -3 -79 -17 -16 -40 -20 -133 -22 -132 -5 -192 8 -208 43 -9 19 -7
29 6 50 16 25 17 25 168 25 127 0 154 -3 170 -17z m370 0 c24 -22 23 -56 -3
-79 -17 -15 -36 -19 -99 -19 -63 0 -82 4 -99 19 -25 23 -27 53 -4 78 23 25
177 27 205 1z m1193 -7 c37 -57 -39 -113 -119 -86 -40 13 -59 39 -49 67 13 37
25 43 89 43 56 0 65 -3 79 -24z m527 7 c24 -21 23 -55 -2 -78 -18 -16 -43 -19
-164 -23 -158 -5 -210 5 -222 41 -5 12 -7 29 -5 37 7 37 20 40 199 40 149 0
178 -2 194 -17z m-2186 -267 c19 -27 18 -52 -6 -76 -17 -17 -33 -20 -115 -20
-82 0 -98 3 -115 20 -23 23 -26 49 -7 72 19 24 35 28 135 25 80 -2 96 -5 108
-21z m464 4 c27 -27 26 -65 -2 -84 -18 -13 -51 -16 -157 -16 -149 0 -171 8
-171 61 0 50 28 59 177 59 120 0 135 -2 153 -20z m1350 0 c26 -26 25 -54 -2
-80 -20 -18 -35 -20 -179 -20 l-158 0 -20 26 c-27 35 -26 48 5 73 24 19 40 21
180 21 141 0 156 -2 174 -20z m287 -2 c51 -48 14 -98 -74 -98 -65 0 -93 18
-93 61 0 38 33 59 94 59 37 0 56 -5 73 -22z m-1621 -273 c21 -32 12 -68 -21
-83 -18 -8 -122 -12 -344 -12 -307 0 -319 1 -345 21 -31 24 -33 52 -6 79 19
19 33 20 360 20 l340 0 16 -25z m334 5 c51 -51 5 -100 -92 -100 -71 0 -102 17
-106 56 -5 50 18 64 104 64 61 0 78 -4 94 -20z m304 4 c20 -19 21 -54 2 -79
-11 -15 -29 -20 -82 -23 -59 -3 -73 -1 -96 18 -32 24 -36 55 -11 82 22 24 163
26 187 2z m728 -1 c22 -19 23 -52 4 -79 -14 -18 -31 -19 -291 -22 -235 -2
-281 -1 -300 12 -32 21 -40 52 -21 81 l16 25 287 0 c252 0 289 -2 305 -17z
m-1823 -253 c53 -15 68 -55 34 -92 -14 -16 -33 -18 -145 -18 -115 0 -130 2
-148 20 -26 26 -25 46 5 75 22 23 31 25 122 25 54 0 114 -4 132 -10z m669 4
c31 -9 54 -53 39 -79 -5 -11 -15 -23 -21 -27 -6 -4 -114 -8 -240 -8 -200 0
-232 2 -248 17 -30 27 -23 69 17 91 21 12 411 17 453 6z m466 -4 c39 -14 53
-53 32 -85 -16 -24 -20 -25 -128 -25 -90 0 -115 3 -130 17 -31 27 -18 82 22
96 26 9 178 7 204 -3z m866 -3 c31 -15 39 -66 15 -91 -15 -14 -55 -16 -345
-16 -364 0 -364 0 -358 64 5 53 20 56 358 56 225 0 312 -4 330 -13z m-2110
-277 c39 -39 15 -89 -49 -97 -96 -13 -155 43 -101 97 15 15 33 20 75 20 42 0
60 -5 75 -20z m548 4 c14 -10 22 -26 22 -44 0 -54 -22 -60 -235 -60 -213 0
-235 6 -235 60 0 54 22 60 235 60 156 0 195 -3 213 -16z m1360 0 c14 -10 22
-26 22 -44 0 -49 -29 -60 -157 -60 -100 0 -115 2 -133 20 -11 11 -20 29 -20
40 0 11 9 29 20 40 18 18 33 20 133 20 86 0 118 -4 135 -16z m469 1 c32 -23
35 -54 8 -81 -23 -23 -30 -24 -157 -24 -151 0 -178 9 -178 60 0 51 27 60 175
60 99 0 136 -4 152 -15z m-2135 -272 c20 -18 24 -63 6 -81 -8 -8 -66 -12 -197
-12 -158 0 -187 2 -203 17 -22 20 -23 42 -2 71 15 21 20 22 196 22 155 0 184
-2 200 -17z m338 -3 c24 -24 25 -38 4 -68 -13 -19 -24 -22 -89 -22 -65 0 -76
3 -89 22 -21 30 -20 44 4 68 16 16 33 20 85 20 52 0 69 -4 85 -20z m1381 10
c22 -12 27 -68 7 -88 -8 -8 -52 -12 -132 -12 -97 0 -123 3 -138 17 -22 20 -23
51 -1 75 14 15 32 18 130 18 63 0 123 -5 134 -10z m481 -7 c20 -18 23 -45 8
-74 -10 -17 -23 -19 -162 -19 -127 0 -154 3 -170 17 -24 21 -23 48 2 73 18 18
33 20 162 20 118 0 145 -3 160 -17z m-2411 -254 c39 -20 41 -77 5 -101 -6 -4
-44 -8 -85 -8 -82 0 -111 15 -111 56 0 39 44 64 112 64 33 0 68 -5 79 -11z
m523 1 c47 -18 54 -74 12 -102 -6 -4 -87 -8 -180 -8 -144 0 -172 3 -188 17
-31 27 -18 82 22 96 26 10 308 7 334 -3z m1302 -14 c19 -26 18 -55 -3 -78 -14
-16 -33 -18 -149 -18 -130 0 -133 0 -153 26 -14 18 -18 31 -12 47 15 40 47 48
179 45 109 -3 125 -5 138 -22z m508 14 c39 -14 53 -53 32 -85 l-16 -25 -180 0
-180 0 -16 25 c-22 33 -11 71 23 83 36 13 304 15 337 2z m-2184 -280 c26 -26
25 -55 -1 -81 -19 -19 -30 -20 -171 -17 -134 3 -151 5 -164 22 -19 27 -18 48
6 74 20 21 30 22 165 22 132 0 147 -2 165 -20z m648 4 c30 -20 30 -68 0 -88
-19 -13 -60 -16 -243 -16 -183 0 -224 3 -243 16 -28 19 -29 57 -2 84 19 19 33
20 243 20 185 0 226 -3 245 -16z m447 -8 c16 -16 22 -31 18 -45 -10 -40 -41
-51 -138 -51 -96 0 -106 3 -124 37 -15 30 -14 36 9 61 19 20 31 22 116 22 87
0 97 -2 119 -24z m543 8 c14 -10 22 -26 22 -44 0 -53 -24 -60 -211 -60 -153 0
-168 2 -193 21 -31 24 -33 52 -6 79 18 18 33 20 193 20 140 0 177 -3 195 -16z
m432 -4 c26 -26 25 -48 -2 -77 -20 -21 -30 -23 -130 -23 -95 0 -110 2 -128 20
-11 11 -20 29 -20 40 0 11 9 29 20 40 18 18 33 20 130 20 97 0 112 -2 130 -20z
m-1811 -255 c34 -17 43 -44 27 -77 l-12 -23 -296 -3 -297 -2 -17 25 c-20 31
-7 70 28 85 13 5 139 9 281 9 208 1 264 -2 286 -14z m778 4 c32 -12 43 -26 43
-56 0 -51 -9 -53 -317 -53 -253 0 -289 2 -305 17 -26 23 -22 58 8 82 25 20 39
21 285 21 158 0 269 -4 286 -11z m572 -13 c25 -23 27 -53 4 -78 -14 -16 -34
-18 -189 -18 -144 0 -175 3 -188 16 -31 30 -14 79 34 97 8 3 83 5 166 4 134
-2 155 -4 173 -21z"/>
</g>
</svg>
